                  Another Fine Release Brought to you from - IMAGiNE

                                                

********************************************************************************************************************                                
                      The Town 2010 PROPER DVDRiP AC3 XViD - IMAGiNE
********************************************************************************************************************

Ripper ...........: IMAGiNE               IMDB Rating.......:8.3/10
Video Codec.......: XVID                  Release Date......:03/12/10
Audio Codec.......:AC3                    Theatre Date......:17/09/10
Audio Bitrate.....:384                    Runtime.......:2h 04mn
Subtitles.........:NIL                    Language..........:ENGLISH
Resolution...... 720 x 304                IMDb URL..........:http://www.imdb.com/title/tt0840361/


DETAILS:

Video
ID                               : 0
Format                           : MPEG-4 Visual
Format profile                   : Advanced Simple@L5
Format settings, BVOP            : Yes
Format settings, QPel            : No
Format settings, GMC             : No warppoints
Format settings, Matrix          : Default (H.263)
Muxing mode                      : Packed bitstream
Codec ID                         : XVID
Codec ID/Hint                    : XviD
Duration                         : 2h 4mn
Bit rate                         : 1 849 Kbps
Width                            : 720 pixels
Height                           : 304 pixels
Display aspect ratio             : 2.35:1
Frame rate                       : 23.976 fps
Color space                      : YUV
Chroma subsampling               : 4:2:0
Bit depth                        : 8 bits
Scan type                        : Progressive
Bits/(Pixel*Frame)               : 0.352
Stream size                      : 1.61 GiB (82%)
Writing library                  : XviD 1.1.2 (UTC 2006-11-01)

Audio
ID                               : 1
Format                           : AC-3
Format/Info                      : Audio Coding 3
Mode extension                   : CM (complete main)
Codec ID                         : 2000
Duration                         : 2h 4mn
Bit rate mode                    : Constant
Bit rate                         : 384 Kbps
Channel(s)                       : 6 channels
Channel positions                : Front: L C R, Side: L R, LFE
Sampling rate                    : 48.0 KHz
Bit depth                        : 16 bits
Stream size                      : 343 MiB (17%)
Alignment                        : Aligned on interleaves
Interleave, duration             : 42 ms (1.00 video frame)
Interleave, preload duration     : 512 ms


SOURCES:

VIDEO:The.Town.DVDR-Replica ................ Thanks
AUDIO:The.Town.DVDR-Replica ................ Thanks

NOTES:

IMAGiNE bringing you another release..........The Town 2010

Ok heres a proper dvdrip from us and by that i mean this time we had a dvdr we could rip instead of just cleaning up 
a already ripped avi file like before.
Pretty straight forward rip really and then muxed the original AC3 track to the encode afterwards.

Enjoy folks

SCREENS: 
http://img132.imageshack.us/img132/3938/vlcsnap217046.png
http://img602.imageshack.us/img602/1804/vlcsnap217495.png
http://img695.imageshack.us/img695/2441/vlcsnap217999.png
http://img41.imageshack.us/img41/1818/vlcsnap218530.png
http://img843.imageshack.us/img843/1228/vlcsnap219247.png
http://img101.imageshack.us/img101/3684/vlcsnap221378.png

GREETS:

FLAWL3SS,ViSiON,FUSiON,Rx,SecretMyth,BirdFlu,ELEKTRI4KA and Autotron
And to all the other p2p grps past and present 

Looking for these,syncers,cammers,silver supplier.....Have anything to offer????......
Contact us imaginegroup@hushmail.com
